<?xml version="1.0" encoding="UTF-8"?>
<!-- Generator: Adobe Illustrator 18.1.0, SVG Export Plug-In . SVG Version: 6.00 Build 0)  -->
<svg version="1.1" id="Layer_1" xmlns="http://www.w3.org/2000/svg" xmlns:xlink="http://www.w3.org/1999/xlink" x="0px" y="0px" viewBox="0 0 300 300" enable-background="new 0 0 300 300" xml:space="preserve">
<g>
	<path fill="#FFB900" d="M186.1,77.5c0,0-136.9,0.7-165.2,128.6c0,0,65.3-89.2,156.3-60.2C177.1,146,194.4,114.9,186.1,77.5z"/>
	<path fill="#32D23E" d="M188.4,22.2c0,0,97.3,74.7,35.8,208.8c0,0-36.6-10.4-56-42.2C168.1,188.8,234.9,137.7,188.4,22.2z"/>
	<path fill="#128CE2" d="M65.8,182.6c0,0,29-24.9,64.3-25.6c0,0,15.9,93.3,132.1,100.9C262.1,258,150.8,306.4,65.8,182.6z"/>
</g>
</svg>